<svg width="800" height="800" viewBox="0 0 24 24" xmlns="http://www.w3.org/2000/svg">
  <path d="M21.25 4.004a.75.75 0 0 1 .743.649l.007.101V19.25a.75.75 0 0 1-.648.743L21.25 20H2.75a.75.75 0 0 1-.743-.648L2 19.25V4.754a.75.75 0 0 1 .648-.743l.102-.007h18.5Zm-15.25 8H3.5V18.5h17v-6.496H18v4.246a.75.75 0 0 1-1.493.102l-.007-.102v-4.246h-2v4.246a.75.75 0 0 1-1.493.102L13 16.25v-4.246h-2v4.246a.75.75 0 0 1-1.493.102L9.5 16.25v-4.246h-2v4.246a.75.75 0 0 1-1.493.102L6 16.25v-4.246Zm11.25-4.503h-2.5l-.102.007a.75.75 0 0 0 0 1.486l.102.007h2.5l.102-.007a.75.75 0 0 0-.102-1.493Zm-11-.001a.75.75 0 1 0 0 1.5.75.75 0 0 0 0-1.5Zm3 0a.75.75 0 1 0 0 1.5.75.75 0 0 0 0-1.5Z" fill="#e36414"/>
</svg>
